<svg width="127" height="74" viewBox="0 0 127 74" fill="none" xmlns="http://www.w3.org/2000/svg">
<path fill-rule="evenodd" clip-rule="evenodd" d="M79 8.81629L63.9673 0L49 8.81629V26.3826L63.9673 35L79 26.3826V8.81629ZM74.6209 11.2026L64.0326 5.03787L59.5882 7.62309L74.6209 16.572V11.2026ZM74.6209 20.947L55.6666 10.0095L53.5098 11.2689V13.7879L67.8571 22.2255L64.1807 24.4328L53.6405 18.428V23.5322L59.7511 27.0924L59.7189 27.1117L63.9673 29.697L72.3333 24.8579L74.6209 23.4659V20.947Z" fill="url(#paint0_linear_0_1)"/>
<path d="M13.7344 56.5938C13.5469 54.6562 11.8906 53.5312 9.45312 53.5312C6.89062 53.5312 5.32812 54.7812 5.32812 56.4688C5.32812 58.375 7.32812 59.1562 9.20312 59.5938L11.3281 60.1562C14.7031 60.9375 17.9531 62.7188 17.9531 66.6562C17.9531 70.625 14.8281 73.3438 9.39062 73.3438C4.10938 73.3438 0.796875 70.8125 0.609375 66.3438H4.60938C4.79688 68.7188 6.79688 69.875 9.35938 69.875C12.0469 69.875 13.8906 68.5625 13.8906 66.625C13.8906 64.8438 12.2344 64.0938 9.79688 63.4688L7.23438 62.8125C3.51562 61.8438 1.20312 59.9688 1.20312 56.7188C1.20312 52.7188 4.76562 50.0625 9.51562 50.0625C14.3281 50.0625 17.5781 52.7812 17.6406 56.5938H13.7344ZM33.6406 56.5938C33.4531 54.6562 31.7969 53.5312 29.3594 53.5312C26.7969 53.5312 25.2344 54.7812 25.2344 56.4688C25.2344 58.375 27.2344 59.1562 29.1094 59.5938L31.2344 60.1562C34.6094 60.9375 37.8594 62.7188 37.8594 66.6562C37.8594 70.625 34.7344 73.3438 29.2969 73.3438C24.0156 73.3438 20.7031 70.8125 20.5156 66.3438H24.5156C24.7031 68.7188 26.7031 69.875 29.2656 69.875C31.9531 69.875 33.7969 68.5625 33.7969 66.625C33.7969 64.8438 32.1406 64.0938 29.7031 63.4688L27.1406 62.8125C23.4219 61.8438 21.1094 59.9688 21.1094 56.7188C21.1094 52.7188 24.6719 50.0625 29.4219 50.0625C34.2344 50.0625 37.4844 52.7812 37.5469 56.5938H33.6406ZM43.7656 73H39.4219L47.3906 50.375H52.3906L60.3906 73H56.0469L54.1719 67.4062H45.6406L43.7656 73ZM46.7344 64.125H53.0781L49.9844 55H49.7969L46.7344 64.125ZM63.0781 73V50.375H77.5781V53.7812H67.1406V59.9688H76.5781V63.375H67.1406V73H63.0781ZM85.0781 50.375V73H81.0156V50.375H85.0781ZM104.547 58C104.078 55.2812 101.891 53.7188 99.1406 53.7188C95.4219 53.7188 92.8281 56.5625 92.8281 61.6875C92.8281 66.875 95.4531 69.6562 99.1406 69.6562C101.828 69.6562 104.016 68.1562 104.547 65.5H108.641C108.016 69.8438 104.453 73.3125 99.0781 73.3125C93.1094 73.3125 88.7344 68.9688 88.7344 61.6875C88.7344 54.375 93.1719 50.0625 99.0781 50.0625C104.078 50.0625 107.953 52.9688 108.641 58H104.547ZM112.141 73V50.375H126.859V53.7812H116.203V59.9688H126.078V63.375H116.203V69.5625H126.922V73H112.141Z" fill="url(#paint1_linear_0_1)"/>
<defs>
<linearGradient id="paint0_linear_0_1" x1="49" y1="12.2372" x2="79.0895" y2="22.5005" gradientUnits="userSpaceOnUse">
<stop stop-color="#00CDFF"/>
<stop offset="1" stop-color="#0586FF"/>
</linearGradient>
<linearGradient id="paint1_linear_0_1" x1="-1" y1="62" x2="129" y2="62" gradientUnits="userSpaceOnUse">
<stop stop-color="#0586FF"/>
<stop offset="1" stop-color="#245AD0"/>
</linearGradient>
</defs>
</svg>