<svg width="24" height="24" viewBox="0 0 24 24" fill="none" xmlns="http://www.w3.org/2000/svg">
<path fill-rule="evenodd" clip-rule="evenodd" d="M4.8 2.4H19.2C20.473 2.4 21.6939 2.90571 22.5941 3.80589C23.4943 4.70606 24 5.92696 24 7.2V19.2C24 20.473 23.4943 21.6939 22.5941 22.5941C21.6939 23.4943 20.473 24 19.2 24H4.8C3.52696 24 2.30606 23.4943 1.40589 22.5941C0.505713 21.6939 0 20.473 0 19.2V7.2C0 5.92696 0.505713 4.70606 1.40589 3.80589C2.30606 2.90571 3.52696 2.4 4.8 2.4ZM4.8 4.8C4.16348 4.8 3.55303 5.05286 3.10294 5.50295C2.65286 5.95303 2.4 6.56348 2.4 7.2V19.2C2.4 19.8365 2.65286 20.447 3.10294 20.8971C3.55303 21.3471 4.16348 21.6 4.8 21.6H19.2C19.8365 21.6 20.447 21.3471 20.8971 20.8971C21.3471 20.447 21.6 19.8365 21.6 19.2V7.2C21.6 6.56348 21.3471 5.95303 20.8971 5.50295C20.447 5.05286 19.8365 4.8 19.2 4.8H4.8Z" fill="#1E1E1E"/>
<path fill-rule="evenodd" clip-rule="evenodd" d="M1.19971 9.6C1.19971 9.28174 1.32614 8.97652 1.55118 8.75147C1.77622 8.52643 2.08145 8.4 2.39971 8.4H21.5997C21.918 8.4 22.2232 8.52643 22.4482 8.75147C22.6733 8.97652 22.7997 9.28174 22.7997 9.6C22.7997 9.91826 22.6733 10.2235 22.4482 10.4485C22.2232 10.6736 21.918 10.8 21.5997 10.8H2.39971C2.08145 10.8 1.77622 10.6736 1.55118 10.4485C1.32614 10.2235 1.19971 9.91826 1.19971 9.6ZM7.19971 0C7.51797 0 7.82319 0.126428 8.04824 0.351472C8.27328 0.576515 8.39971 0.88174 8.39971 1.2V6C8.39971 6.31826 8.27328 6.62348 8.04824 6.84853C7.82319 7.07357 7.51797 7.2 7.19971 7.2C6.88145 7.2 6.57622 7.07357 6.35118 6.84853C6.12614 6.62348 5.99971 6.31826 5.99971 6V1.2C5.99971 0.88174 6.12614 0.576515 6.35118 0.351472C6.57622 0.126428 6.88145 0 7.19971 0ZM16.7997 0C17.118 0 17.4232 0.126428 17.6482 0.351472C17.8733 0.576515 17.9997 0.88174 17.9997 1.2V6C17.9997 6.31826 17.8733 6.62348 17.6482 6.84853C17.4232 7.07357 17.118 7.2 16.7997 7.2C16.4814 7.2 16.1762 7.07357 15.9512 6.84853C15.7261 6.62348 15.5997 6.31826 15.5997 6V1.2C15.5997 0.88174 15.7261 0.576515 15.9512 0.351472C16.1762 0.126428 16.4814 0 16.7997 0Z" fill="#1E1E1E"/>
<path d="M7.20029 13.2C7.20029 13.5183 7.07386 13.8235 6.84882 14.0485C6.62378 14.2736 6.31855 14.4 6.00029 14.4C5.68203 14.4 5.37681 14.2736 5.15177 14.0485C4.92672 13.8235 4.80029 13.5183 4.80029 13.2C4.80029 12.8817 4.92672 12.5765 5.15177 12.3515C5.37681 12.1264 5.68203 12 6.00029 12C6.31855 12 6.62378 12.1264 6.84882 12.3515C7.07386 12.5765 7.20029 12.8817 7.20029 13.2ZM7.20029 18C7.20029 18.3183 7.07386 18.6235 6.84882 18.8485C6.62378 19.0736 6.31855 19.2 6.00029 19.2C5.68203 19.2 5.37681 19.0736 5.15177 18.8485C4.92672 18.6235 4.80029 18.3183 4.80029 18C4.80029 17.6817 4.92672 17.3765 5.15177 17.1515C5.37681 16.9264 5.68203 16.8 6.00029 16.8C6.31855 16.8 6.62378 16.9264 6.84882 17.1515C7.07386 17.3765 7.20029 17.6817 7.20029 18ZM13.2003 13.2C13.2003 13.5183 13.0739 13.8235 12.8488 14.0485C12.6238 14.2736 12.3186 14.4 12.0003 14.4C11.682 14.4 11.3768 14.2736 11.1518 14.0485C10.9267 13.8235 10.8003 13.5183 10.8003 13.2C10.8003 12.8817 10.9267 12.5765 11.1518 12.3515C11.3768 12.1264 11.682 12 12.0003 12C12.3186 12 12.6238 12.1264 12.8488 12.3515C13.0739 12.5765 13.2003 12.8817 13.2003 13.2ZM13.2003 18C13.2003 18.3183 13.0739 18.6235 12.8488 18.8485C12.6238 19.0736 12.3186 19.2 12.0003 19.2C11.682 19.2 11.3768 19.0736 11.1518 18.8485C10.9267 18.6235 10.8003 18.3183 10.8003 18C10.8003 17.6817 10.9267 17.3765 11.1518 17.1515C11.3768 16.9264 11.682 16.8 12.0003 16.8C12.3186 16.8 12.6238 16.9264 12.8488 17.1515C13.0739 17.3765 13.2003 17.6817 13.2003 18ZM19.2003 13.2C19.2003 13.5183 19.0739 13.8235 18.8488 14.0485C18.6238 14.2736 18.3186 14.4 18.0003 14.4C17.682 14.4 17.3768 14.2736 17.1518 14.0485C16.9267 13.8235 16.8003 13.5183 16.8003 13.2C16.8003 12.8817 16.9267 12.5765 17.1518 12.3515C17.3768 12.1264 17.682 12 18.0003 12C18.3186 12 18.6238 12.1264 18.8488 12.3515C19.0739 12.5765 19.2003 12.8817 19.2003 13.2ZM19.2003 18C19.2003 18.3183 19.0739 18.6235 18.8488 18.8485C18.6238 19.0736 18.3186 19.2 18.0003 19.2C17.682 19.2 17.3768 19.0736 17.1518 18.8485C16.9267 18.6235 16.8003 18.3183 16.8003 18C16.8003 17.6817 16.9267 17.3765 17.1518 17.1515C17.3768 16.9264 17.682 16.8 18.0003 16.8C18.3186 16.8 18.6238 16.9264 18.8488 17.1515C19.0739 17.3765 19.2003 17.6817 19.2003 18Z" fill="#1E1E1E"/>
</svg>
