<svg width="14" height="15" viewBox="0 0 14 15" fill="none" xmlns="http://www.w3.org/2000/svg">
<path d="M0 7.5C0 3.63401 3.13401 0.5 7 0.5C10.866 0.5 14 3.63401 14 7.5C14 11.366 10.866 14.5 7 14.5C3.13401 14.5 0 11.366 0 7.5Z" fill="white"/>
<path d="M3 4H4.5L5.5 3H8.5L9.5 4H11C11.2652 4 11.5196 4.10536 11.7071 4.29289C11.8946 4.48043 12 4.73478 12 5V11C12 11.2652 11.8946 11.5196 11.7071 11.7071C11.5196 11.8946 11.2652 12 11 12H3C2.73478 12 2.48043 11.8946 2.29289 11.7071C2.10536 11.5196 2 11.2652 2 11V5C2 4.73478 2.10536 4.48043 2.29289 4.29289C2.48043 4.10536 2.73478 4 3 4ZM7 5.5C6.33696 5.5 5.70107 5.76339 5.23223 6.23223C4.76339 6.70107 4.5 7.33696 4.5 8C4.5 8.66304 4.76339 9.29893 5.23223 9.76777C5.70107 10.2366 6.33696 10.5 7 10.5C7.66304 10.5 8.29893 10.2366 8.76777 9.76777C9.23661 9.29893 9.5 8.66304 9.5 8C9.5 7.33696 9.23661 6.70107 8.76777 6.23223C8.29893 5.76339 7.66304 5.5 7 5.5ZM7 6.5C7.39782 6.5 7.77936 6.65804 8.06066 6.93934C8.34196 7.22064 8.5 7.60218 8.5 8C8.5 8.39782 8.34196 8.77936 8.06066 9.06066C7.77936 9.34196 7.39782 9.5 7 9.5C6.60218 9.5 6.22064 9.34196 5.93934 9.06066C5.65804 8.77936 5.5 8.39782 5.5 8C5.5 7.60218 5.65804 7.22064 5.93934 6.93934C6.22064 6.65804 6.60218 6.5 7 6.5Z" fill="#374151"/>
</svg>
