<svg width="20" height="20" viewBox="0 0 20 20" fill="none" xmlns="http://www.w3.org/2000/svg">
<g clip-path="url(#clip0_222_1576)">
<path d="M0 6C0 2.68629 2.68629 0 6 0H14C17.3137 0 20 2.68629 20 6V14C20 17.3137 17.3137 20 14 20H6C2.68629 20 0 17.3137 0 14V6Z" fill="#2563EB"/>
<path d="M7.95801 14.9998L3.20801 10.2498L4.39551 9.06234L7.95801 12.6248L15.6038 4.979L16.7913 6.1665L7.95801 14.9998Z" fill="white"/>
</g>
<path d="M0.5 6C0.5 2.96243 2.96243 0.5 6 0.5H14C17.0376 0.5 19.5 2.96243 19.5 6V14C19.5 17.0376 17.0376 19.5 14 19.5H6C2.96243 19.5 0.5 17.0376 0.5 14V6Z" stroke="#1D4ED8"/>
<defs>
<clipPath id="clip0_222_1576">
<path d="M0 6C0 2.68629 2.68629 0 6 0H14C17.3137 0 20 2.68629 20 6V14C20 17.3137 17.3137 20 14 20H6C2.68629 20 0 17.3137 0 14V6Z" fill="white"/>
</clipPath>
</defs>
</svg>
