<svg width="24" height="24" viewBox="0 0 24 24" fill="none" xmlns="http://www.w3.org/2000/svg">
<path d="M11.4755 3.04896H4.10567C3.54721 3.04896 3.01163 3.2708 2.61674 3.66569C2.22185 4.06058 2 4.59617 2 5.15463V19.8943C2 20.4528 2.22185 20.9884 2.61674 21.3833C3.01163 21.7781 3.54721 22 4.10567 22H18.8454C19.4038 22 19.9394 21.7781 20.3343 21.3833C20.7292 20.9884 20.951 20.4528 20.951 19.8943V12.5245" stroke="black" stroke-width="2" stroke-linecap="round" stroke-linejoin="round"/>
<path d="M18.1871 2.65415C18.606 2.2353 19.1741 2 19.7664 2C20.3587 2 20.9268 2.2353 21.3457 2.65415C21.7645 3.07299 21.9998 3.64107 21.9998 4.2334C21.9998 4.82574 21.7645 5.39381 21.3457 5.81265L11.8564 15.3029C11.6064 15.5527 11.2976 15.7355 10.9584 15.8346L7.93358 16.719C7.84299 16.7454 7.74695 16.747 7.65554 16.7236C7.56412 16.7001 7.48068 16.6526 7.41395 16.5859C7.34722 16.5191 7.29966 16.4357 7.27624 16.3443C7.25281 16.2528 7.2544 16.1568 7.28082 16.0662L8.1652 13.0414C8.26472 12.7025 8.44793 12.394 8.69794 12.1444L18.1871 2.65415Z" stroke="black" stroke-width="2" stroke-linecap="round" stroke-linejoin="round"/>
</svg>
