<!DOCTYPE svg PUBLIC "-//W3C//DTD SVG 1.1//EN" "http://www.w3.org/Graphics/SVG/1.1/DTD/svg11.dtd">
<!-- Uploaded to: SVG Repo, www.svgrepo.com, Transformed by: SVG Repo Mixer Tools -->
<svg width="800px" height="800px" viewBox="0 -0.5 25 25" fill="none" xmlns="http://www.w3.org/2000/svg">
<g id="SVGRepo_bgCarrier" stroke-width="0"/>
<g id="SVGRepo_tracerCarrier" stroke-linecap="round" stroke-linejoin="round"/>
<g id="SVGRepo_iconCarrier"> <path d="M12.5 9.279C12.9142 9.279 13.25 8.94321 13.25 8.529C13.25 8.11479 12.9142 7.779 12.5 7.779V9.279ZM7.78691 17.0545C8.15666 17.2412 8.60776 17.0928 8.79448 16.7231C8.9812 16.3533 8.83283 15.9022 8.46309 15.7155L7.78691 17.0545ZM11.75 8.529C11.75 8.94321 12.0858 9.279 12.5 9.279C12.9142 9.279 13.25 8.94321 13.25 8.529H11.75ZM13.25 5C13.25 4.58579 12.9142 4.25 12.5 4.25C12.0858 4.25 11.75 4.58579 11.75 5H13.25ZM12.4976 7.779C12.0834 7.78034 11.7487 8.11721 11.75 8.53142C11.7513 8.94563 12.0882 9.28033 12.5024 9.279L12.4976 7.779ZM15.0727 9.61167C15.4729 9.71841 15.8839 9.48051 15.9907 9.08029C16.0974 8.68006 15.8595 8.26908 15.4593 8.16233L15.0727 9.61167ZM7.04684 6.43163C6.86272 6.06058 6.41268 5.90905 6.04163 6.09316C5.67058 6.27728 5.51905 6.72732 5.70316 7.09837L7.04684 6.43163ZM7.14216 9.99837C7.32628 10.3694 7.77632 10.521 8.14737 10.3368C8.51842 10.1527 8.66995 9.70268 8.48584 9.33163L7.14216 9.99837ZM7.57341 19.4918C7.29275 19.7965 7.31219 20.2709 7.61682 20.5516C7.92146 20.8323 8.39594 20.8128 8.67659 20.5082L7.57341 19.4918ZM11.2516 17.7132C11.5323 17.4085 11.5128 16.9341 11.2082 16.6534C10.9035 16.3727 10.4291 16.3922 10.1484 16.6968L11.2516 17.7132ZM20.0518 8.155C20.3323 7.85027 20.3127 7.3758 20.008 7.09524C19.7033 6.81468 19.2288 6.83427 18.9482 7.139L20.0518 8.155ZM16.9282 9.333C16.6477 9.63773 16.6673 10.1122 16.972 10.3928C17.2767 10.6733 17.7512 10.6537 18.0318 10.349L16.9282 9.333ZM10.1484 16.6968C9.86775 17.0015 9.88718 17.4759 10.1918 17.7566C10.4965 18.0373 10.9709 18.0178 11.2516 17.7132L10.1484 16.6968ZM13.1 14.6L13.6516 15.1082L13.6523 15.1074L13.1 14.6ZM14.185 13.419L13.6333 12.9109L13.6327 12.9116L14.185 13.419ZM18.0317 10.3491C18.3123 10.0444 18.2928 9.5699 17.9881 9.2893C17.6834 9.00871 17.2089 9.02824 16.9283 9.33294L18.0317 10.3491ZM10.823 16.4652C10.4144 16.3972 10.0281 16.6734 9.96016 17.082C9.89221 17.4906 10.1684 17.8769 10.577 17.9448L10.823 16.4652ZM12.5 17.353L12.5 16.603H12.4995L12.5 17.353ZM19.5 12.941H20.25C20.25 12.9232 20.2494 12.9055 20.2481 12.8877L19.5 12.941ZM17.8309 9.17814C17.4648 8.98435 17.0109 9.12403 16.8171 9.49011C16.6234 9.8562 16.763 10.3101 17.1291 10.5039L17.8309 9.17814ZM10.4717 14.4167C10.7139 14.7526 11.1827 14.8286 11.5187 14.5863C11.8546 14.3441 11.9306 13.8753 11.6883 13.5393L10.4717 14.4167ZM10.937 12.1447L11.606 12.4838L10.937 12.1447ZM12.5 11.176L12.4991 10.426L12.494 10.426L12.5 11.176ZM13.0229 12.0756C13.3739 12.2955 13.8367 12.1892 14.0566 11.8381C14.2765 11.4871 14.1702 11.0243 13.8191 10.8044L13.0229 12.0756ZM12.5 7.779C10.4478 7.779 8.5544 8.30173 7.15036 9.18663C5.75606 10.0654 4.75 11.3737 4.75 12.941H6.25C6.25 12.0713 6.81094 11.1736 7.95014 10.4556C9.0796 9.74377 10.6862 9.279 12.5 9.279V7.779ZM4.75 12.941C4.75 14.7344 6.05973 16.1823 7.78691 17.0545L8.46309 15.7155C6.99027 14.9718 6.25 13.9336 6.25 12.941H4.75ZM13.25 8.529V5H11.75V8.529H13.25ZM12.5024 9.279C13.3701 9.27619 14.2343 9.38805 15.0727 9.61167L15.4593 8.16233C14.4932 7.90467 13.4974 7.77578 12.4976 7.779L12.5024 9.279ZM5.70316 7.09837L7.14216 9.99837L8.48584 9.33163L7.04684 6.43163L5.70316 7.09837ZM8.67659 20.5082L11.2516 17.7132L10.1484 16.6968L7.57341 19.4918L8.67659 20.5082ZM18.9482 7.139L16.9282 9.333L18.0318 10.349L20.0518 8.155L18.9482 7.139ZM11.2516 17.7132L13.6516 15.1082L12.5484 14.0918L10.1484 16.6968L11.2516 17.7132ZM13.6523 15.1074L14.7373 13.9264L13.6327 12.9116L12.5477 14.0926L13.6523 15.1074ZM14.7367 13.9271L18.0317 10.3491L16.9283 9.33294L13.6333 12.9109L14.7367 13.9271ZM10.577 17.9448C11.2127 18.0506 11.8561 18.1035 12.5005 18.103L12.4995 16.603C11.9378 16.6034 11.3771 16.5573 10.823 16.4652L10.577 17.9448ZM12.5 18.103C14.5522 18.103 16.4456 17.5803 17.8496 16.6954C19.2439 15.8166 20.25 14.5083 20.25 12.941H18.75C18.75 13.8107 18.1891 14.7084 17.0499 15.4264C15.9204 16.1382 14.3138 16.603 12.5 16.603V18.103ZM20.2481 12.8877C20.1363 11.317 19.2226 9.91487 17.8309 9.17814L17.1291 10.5039C18.0634 10.9985 18.6768 11.9398 18.7519 12.9943L20.2481 12.8877ZM11.6883 13.5393C11.4657 13.2306 11.4339 12.8233 11.606 12.4838L10.268 11.8057C9.84236 12.6456 9.92092 13.6529 10.4717 14.4167L11.6883 13.5393ZM11.606 12.4838C11.7781 12.1442 12.1253 11.929 12.506 11.926L12.494 10.426C11.5524 10.4335 10.6937 10.9658 10.268 11.8057L11.606 12.4838ZM12.5009 11.926C12.6855 11.9258 12.8664 11.9776 13.0229 12.0756L13.8191 10.8044C13.4235 10.5566 12.9659 10.4254 12.4991 10.426L12.5009 11.926Z" fill="#6B7280"/> </g>
</svg>