<svg width="24" height="24" viewBox="0 0 24 24" fill="none" xmlns="http://www.w3.org/2000/svg">
<path fill-rule="evenodd" clip-rule="evenodd" d="M2.4001 4.80005C2.18792 4.80005 1.98444 4.88433 1.83441 5.03436C1.68438 5.18439 1.6001 5.38788 1.6001 5.60005C1.6001 5.81222 1.68438 6.0157 1.83441 6.16573C1.98444 6.31576 2.18792 6.40005 2.4001 6.40005H21.6001C21.8123 6.40005 22.0158 6.31576 22.1658 6.16573C22.3158 6.0157 22.4001 5.81222 22.4001 5.60005C22.4001 5.38788 22.3158 5.18439 22.1658 5.03436C22.0158 4.88433 21.8123 4.80005 21.6001 4.80005H2.4001ZM1.6001 12C1.6001 11.7879 1.68438 11.5844 1.83441 11.4344C1.98444 11.2843 2.18792 11.2 2.4001 11.2H21.6001C21.8123 11.2 22.0158 11.2843 22.1658 11.4344C22.3158 11.5844 22.4001 11.7879 22.4001 12C22.4001 12.2122 22.3158 12.4157 22.1658 12.5657C22.0158 12.7158 21.8123 12.8 21.6001 12.8H2.4001C2.18792 12.8 1.98444 12.7158 1.83441 12.5657C1.68438 12.4157 1.6001 12.2122 1.6001 12ZM1.6001 18.4C1.6001 18.1879 1.68438 17.9844 1.83441 17.8344C1.98444 17.6843 2.18792 17.6 2.4001 17.6H21.6001C21.8123 17.6 22.0158 17.6843 22.1658 17.8344C22.3158 17.9844 22.4001 18.1879 22.4001 18.4C22.4001 18.6122 22.3158 18.8157 22.1658 18.9657C22.0158 19.1158 21.8123 19.2 21.6001 19.2H2.4001C2.18792 19.2 1.98444 19.1158 1.83441 18.9657C1.68438 18.8157 1.6001 18.6122 1.6001 18.4Z" fill="#1E1E1E"/>
</svg>
