<svg width="17" height="16" viewBox="0 0 17 16" fill="none" xmlns="http://www.w3.org/2000/svg">
<path d="M7.8335 11.3335H9.16683V7.3335H7.8335V11.3335ZM8.50016 6.00016C8.68905 6.00016 8.8475 5.93616 8.9755 5.80816C9.1035 5.68016 9.16727 5.52194 9.16683 5.3335C9.16639 5.14505 9.10239 4.98683 8.97483 4.85883C8.84727 4.73083 8.68905 4.66683 8.50016 4.66683C8.31127 4.66683 8.15305 4.73083 8.0255 4.85883C7.89794 4.98683 7.83394 5.14505 7.8335 5.3335C7.83305 5.52194 7.89705 5.68039 8.0255 5.80883C8.15394 5.93727 8.31216 6.00105 8.50016 6.00016ZM8.50016 14.6668C7.57794 14.6668 6.71128 14.4917 5.90016 14.1415C5.08905 13.7913 4.3835 13.3164 3.7835 12.7168C3.1835 12.1173 2.70861 11.4117 2.35883 10.6002C2.00905 9.78861 1.83394 8.92194 1.8335 8.00016C1.83305 7.07838 2.00816 6.21172 2.35883 5.40016C2.7095 4.58861 3.18439 3.88305 3.7835 3.2835C4.38261 2.68394 5.08816 2.20905 5.90016 1.85883C6.71216 1.50861 7.57883 1.3335 8.50016 1.3335C9.4215 1.3335 10.2882 1.50861 11.1002 1.85883C11.9122 2.20905 12.6177 2.68394 13.2168 3.2835C13.8159 3.88305 14.2911 4.58861 14.6422 5.40016C14.9933 6.21172 15.1682 7.07838 15.1668 8.00016C15.1655 8.92194 14.9904 9.78861 14.6415 10.6002C14.2926 11.4117 13.8177 12.1173 13.2168 12.7168C12.6159 13.3164 11.9104 13.7915 11.1002 14.1422C10.2899 14.4928 9.42327 14.6677 8.50016 14.6668ZM8.50016 13.3335C9.98905 13.3335 11.2502 12.8168 12.2835 11.7835C13.3168 10.7502 13.8335 9.48905 13.8335 8.00016C13.8335 6.51127 13.3168 5.25016 12.2835 4.21683C11.2502 3.1835 9.98905 2.66683 8.50016 2.66683C7.01127 2.66683 5.75016 3.1835 4.71683 4.21683C3.6835 5.25016 3.16683 6.51127 3.16683 8.00016C3.16683 9.48905 3.6835 10.7502 4.71683 11.7835C5.75016 12.8168 7.01127 13.3335 8.50016 13.3335Z" fill="#6B7280"/>
</svg>
