<svg width="212" height="49" viewBox="0 0 212 49" fill="none" xmlns="http://www.w3.org/2000/svg">
<path fill-rule="evenodd" clip-rule="evenodd" d="M42 12.3428L20.9543 0L0 12.3428V36.9356L20.9543 49L42 36.9356V12.3428ZM35.8693 15.6837L21.0458 7.05301L14.8235 10.6723L35.8693 23.2007V15.6837ZM35.8693 29.3257L9.33334 14.0132L6.31373 15.7765V19.303L26.4 31.1157L21.253 34.206L6.49674 25.7992V32.9451L15.0516 37.9294L15.0065 37.9564L20.9543 41.5757L32.6667 34.8011L35.8693 32.8523V29.3257Z" fill="url(#paint0_linear_30_241)"/>
<path d="M68.168 17.9922C67.9336 15.5703 65.8633 14.1641 62.8164 14.1641C59.6133 14.1641 57.6602 15.7266 57.6602 17.8359C57.6602 20.2188 60.1602 21.1953 62.5039 21.7422L65.1602 22.4453C69.3789 23.4219 73.4414 25.6484 73.4414 30.5703C73.4414 35.5312 69.5352 38.9297 62.7383 38.9297C56.1367 38.9297 51.9961 35.7656 51.7617 30.1797H56.7617C56.9961 33.1484 59.4961 34.5938 62.6992 34.5938C66.0586 34.5938 68.3633 32.9531 68.3633 30.5312C68.3633 28.3047 66.293 27.3672 63.2461 26.5859L60.043 25.7656C55.3945 24.5547 52.5039 22.2109 52.5039 18.1484C52.5039 13.1484 56.957 9.82812 62.8945 9.82812C68.9102 9.82812 72.9727 13.2266 73.0508 17.9922H68.168ZM93.0508 17.9922C92.8164 15.5703 90.7461 14.1641 87.6992 14.1641C84.4961 14.1641 82.543 15.7266 82.543 17.8359C82.543 20.2188 85.043 21.1953 87.3867 21.7422L90.043 22.4453C94.2617 23.4219 98.3242 25.6484 98.3242 30.5703C98.3242 35.5312 94.418 38.9297 87.6211 38.9297C81.0195 38.9297 76.8789 35.7656 76.6445 30.1797H81.6445C81.8789 33.1484 84.3789 34.5938 87.582 34.5938C90.9414 34.5938 93.2461 32.9531 93.2461 30.5312C93.2461 28.3047 91.1758 27.3672 88.1289 26.5859L84.9258 25.7656C80.2773 24.5547 77.3867 22.2109 77.3867 18.1484C77.3867 13.1484 81.8398 9.82812 87.7773 9.82812C93.793 9.82812 97.8555 13.2266 97.9336 17.9922H93.0508ZM105.707 38.5H100.277L110.238 10.2188H116.488L126.488 38.5H121.059L118.715 31.5078H108.051L105.707 38.5ZM109.418 27.4062H117.348L113.48 16H113.246L109.418 27.4062ZM129.848 38.5V10.2188H147.973V14.4766H134.926V22.2109H146.723V26.4688H134.926V38.5H129.848ZM157.348 10.2188V38.5H152.27V10.2188H157.348ZM181.684 19.75C181.098 16.3516 178.363 14.3984 174.926 14.3984C170.277 14.3984 167.035 17.9531 167.035 24.3594C167.035 30.8438 170.316 34.3203 174.926 34.3203C178.285 34.3203 181.02 32.4453 181.684 29.125H186.801C186.02 34.5547 181.566 38.8906 174.848 38.8906C167.387 38.8906 161.918 33.4609 161.918 24.3594C161.918 15.2188 167.465 9.82812 174.848 9.82812C181.098 9.82812 185.941 13.4609 186.801 19.75H181.684ZM191.176 38.5V10.2188H209.574V14.4766H196.254V22.2109H208.598V26.4688H196.254V34.2031H209.652V38.5H191.176Z" fill="url(#paint1_linear_30_241)"/>
<defs>
<linearGradient id="paint0_linear_30_241" x1="-2.01103e-07" y1="17.1321" x2="42.1252" y2="31.5007" gradientUnits="userSpaceOnUse">
<stop stop-color="#00CDFF"/>
<stop offset="1" stop-color="#0586FF"/>
</linearGradient>
<linearGradient id="paint1_linear_30_241" x1="50" y1="24.5" x2="212" y2="24.5" gradientUnits="userSpaceOnUse">
<stop stop-color="#0586FF"/>
<stop offset="1" stop-color="#245AD0"/>
</linearGradient>
</defs>
</svg>
