<svg width="12" height="13" viewBox="0 0 12 13" fill="none" xmlns="http://www.w3.org/2000/svg">
<path d="M0.318339 4.57654C1.1829 2.02263 3.59923 0.432858 6.1604 0.502179L5.33952 1.47216C3.82011 1.74688 2.50815 2.78443 1.99253 4.30766C1.22534 6.57398 2.51122 9.05696 4.86466 9.85375C7.21809 10.6504 9.74778 9.45901 10.515 7.19283C11.0289 5.67464 10.6214 4.0593 9.58891 2.91869L9.5258 1.64513C11.5955 3.14739 12.5448 5.87354 11.6816 8.42336C10.6194 11.5613 7.21451 13.2439 4.07665 12.1816C0.938782 11.1193 -0.74388 7.71445 0.318339 4.57654ZM7.74306 1.05894C7.77374 1.04564 7.8091 1.04279 7.84321 1.05433C7.87666 1.06566 7.90245 1.08866 7.91888 1.11686L7.92224 1.12234L7.92524 1.12862C7.93313 1.14367 7.93985 1.16091 7.94299 1.18209C7.94917 1.22384 7.95195 1.32201 7.95308 1.42255L7.95335 1.44999C7.95361 1.48198 7.95373 1.51372 7.95376 1.54345V1.56841C7.95369 1.64971 7.95299 1.71065 7.95299 1.71065L7.97659 2.59816L8.01143 3.62263L8.05489 5.40298C8.05489 5.40298 8.0549 5.40331 8.05491 5.40395L8.05494 5.40684C8.05495 5.40748 8.05495 5.40819 8.05496 5.40899L8.05496 5.41465C8.05463 5.51632 8.03377 6.26069 7.50574 6.778C6.93796 7.33424 6.24053 7.28333 5.78677 7.12979C5.33302 6.9761 4.74815 6.5929 4.635 5.80612C4.53883 5.13742 4.89435 4.57533 5.00317 4.42175L5.01044 4.41159C5.02525 4.39107 5.0339 4.38026 5.0339 4.38026L6.14988 2.99246L6.79991 2.19984L7.35775 1.50912C7.35775 1.50912 7.43978 1.39924 7.52421 1.29102L7.5411 1.26943C7.56924 1.2336 7.59704 1.19877 7.62158 1.16909L7.63589 1.15193C7.65668 1.12722 7.67435 1.10734 7.68675 1.09531C7.70121 1.08129 7.71604 1.07216 7.73057 1.06507L7.74124 1.05967L7.74306 1.05894Z" fill="white"/>
</svg>
