<svg width="24" height="24" viewBox="0 0 24 24" fill="none" xmlns="http://www.w3.org/2000/svg">
<path fill-rule="evenodd" clip-rule="evenodd" d="M3.24985 8.75C3.24985 6.42936 4.17172 4.20376 5.81267 2.56282C7.45361 0.921872 9.67921 0 11.9999 0C14.3205 0 16.5461 0.921872 18.187 2.56282C19.828 4.20376 20.7499 6.42936 20.7499 8.75V13.455L23.0274 18.01C23.1322 18.2197 23.1817 18.4526 23.1712 18.6868C23.1606 18.921 23.0904 19.1485 22.9672 19.3479C22.8439 19.5473 22.6718 19.7119 22.467 19.826C22.2623 19.9401 22.0318 20 21.7974 20H16.8424C16.5643 21.0728 15.9379 22.0229 15.0614 22.7012C14.185 23.3794 13.1081 23.7474 11.9999 23.7474C10.8916 23.7474 9.81473 23.3794 8.93827 22.7012C8.06182 22.0229 7.4354 21.0728 7.15735 20H2.20235C1.96795 20 1.73743 19.9401 1.53269 19.826C1.32794 19.7119 1.15577 19.5473 1.03253 19.3479C0.909292 19.1485 0.839071 18.921 0.828538 18.6868C0.818005 18.4526 0.86751 18.2197 0.972352 18.01L3.24985 13.455V8.75ZM9.83485 20C10.0543 20.38 10.3699 20.6956 10.7499 20.915C11.1299 21.1344 11.561 21.2499 11.9999 21.2499C12.4387 21.2499 12.8698 21.1344 13.2498 20.915C13.6298 20.6956 13.9454 20.38 14.1649 20H9.83485ZM11.9999 2.5C10.3422 2.5 8.75254 3.15848 7.58043 4.33058C6.40833 5.50269 5.74985 7.0924 5.74985 8.75V13.455C5.74983 13.8429 5.65953 14.2255 5.4861 14.5725L4.0236 17.5H19.9774L18.5149 14.5725C18.341 14.2256 18.2503 13.843 18.2499 13.455V8.75C18.2499 7.0924 17.5914 5.50269 16.4193 4.33058C15.2472 3.15848 13.6575 2.5 11.9999 2.5Z" fill="#111827"/>
</svg>
