<svg width="16" height="16" viewBox="0 0 16 16" fill="none" xmlns="http://www.w3.org/2000/svg">
<path d="M8.42 1.33334C12.1067 1.33334 15.0933 4.33334 15.0933 8.00001C15.0933 11.6667 12.1067 14.6667 8.42 14.6667C6.08 14.6667 4.03333 13.4533 2.84 11.62L3.89333 10.7867C4.83333 12.3133 6.50667 13.3333 8.42667 13.3333C9.84116 13.3333 11.1977 12.7714 12.1979 11.7712C13.1981 10.7711 13.76 9.4145 13.76 8.00001C13.76 6.58552 13.1981 5.22897 12.1979 4.22877C11.1977 3.22858 9.84116 2.66668 8.42667 2.66668C5.70667 2.66668 3.46667 4.70668 3.14 7.33334H4.98L2.48667 9.82001L0 7.33334H1.79333C2.12667 3.96668 4.96667 1.33334 8.42 1.33334ZM10.3933 6.82668C10.7267 6.83334 11 7.10001 11 7.44001V10.5133C11 10.8467 10.7267 11.1267 10.3867 11.1267H6.7C6.36 11.1267 6.08667 10.8467 6.08667 10.5133V7.44001C6.08667 7.10001 6.36 6.83334 6.69333 6.82668V6.15334C6.69333 5.13334 7.52667 4.30668 8.54 4.30668C9.56 4.30668 10.3933 5.13334 10.3933 6.15334V6.82668ZM8.54 5.24001C8.04 5.24001 7.62667 5.64668 7.62667 6.15334V6.82668H9.46V6.15334C9.46 5.64668 9.04667 5.24001 8.54 5.24001Z" fill="#1E1E1E"/>
</svg>
