<svg width="12" height="13" viewBox="0 0 12 13" fill="none" xmlns="http://www.w3.org/2000/svg">
<path d="M6 12.5C4.325 12.5 2.90625 11.9187 1.74375 10.7562C0.58125 9.59375 0 8.175 0 6.5C0 4.825 0.58125 3.40625 1.74375 2.24375C2.90625 1.08125 4.325 0.5 6 0.5C6.8625 0.5 7.6875 0.678 8.475 1.034C9.2625 1.39 9.9375 1.8995 10.5 2.5625V0.5H12V5.75H6.75V4.25H9.9C9.5 3.55 8.95325 3 8.25975 2.6C7.56625 2.2 6.813 2 6 2C4.75 2 3.6875 2.4375 2.8125 3.3125C1.9375 4.1875 1.5 5.25 1.5 6.5C1.5 7.75 1.9375 8.8125 2.8125 9.6875C3.6875 10.5625 4.75 11 6 11C6.9625 11 7.83125 10.725 8.60625 10.175C9.38125 9.625 9.925 8.9 10.2375 8H11.8125C11.4625 9.325 10.75 10.4063 9.675 11.2438C8.6 12.0813 7.375 12.5 6 12.5Z" fill="#1E1E1E"/>
</svg>
