<svg width="20" height="20" viewBox="0 0 20 20" fill="none" xmlns="http://www.w3.org/2000/svg">
<path d="M9.0948 10.9043C8.93554 10.7453 8.74574 10.6203 8.53683 10.5366L1.9285 7.88663C1.84959 7.85497 1.78226 7.79993 1.73555 7.7289C1.68883 7.65787 1.66495 7.57425 1.66713 7.48926C1.66931 7.40428 1.69743 7.32199 1.74772 7.25344C1.79802 7.1849 1.86808 7.13338 1.9485 7.1058L17.7818 1.68913C17.8557 1.66246 17.9356 1.65737 18.0122 1.67446C18.0888 1.69154 18.159 1.7301 18.2145 1.78561C18.27 1.84113 18.3086 1.9113 18.3257 1.98793C18.3428 2.06455 18.3377 2.14446 18.311 2.2183L12.8943 18.0516C12.8668 18.1321 12.8152 18.2021 12.7467 18.2524C12.6781 18.3027 12.5959 18.3308 12.5109 18.333C12.4259 18.3352 12.3423 18.3113 12.2712 18.2646C12.2002 18.2179 12.1452 18.1505 12.1135 18.0716L9.4635 11.4616C9.37948 11.2529 9.25406 11.0633 9.0948 10.9043ZM9.0948 10.9043L18.2118 1.78913" stroke="white" stroke-width="2" stroke-linecap="round" stroke-linejoin="round"/>
</svg>
