<svg width="7" height="11" viewBox="0 0 7 11" fill="none" xmlns="http://www.w3.org/2000/svg">
<path d="M0.96959 0.726914C0.828987 0.86756 0.75 1.05829 0.75 1.25716C0.75 1.45604 0.828987 1.64677 0.96959 1.78741L4.68209 5.49991L0.96959 9.21241C0.832971 9.35387 0.757375 9.54332 0.759084 9.73997C0.760793 9.93661 0.83967 10.1247 0.978726 10.2638C1.11778 10.4028 1.30589 10.4817 1.50254 10.4834C1.69919 10.4851 1.88864 10.4095 2.03009 10.2729L6.27284 6.03016C6.41344 5.88952 6.49243 5.69879 6.49243 5.49991C6.49243 5.30104 6.41344 5.11031 6.27284 4.96966L2.03009 0.726914C1.88944 0.586311 1.69871 0.507324 1.49984 0.507324C1.30097 0.507324 1.11024 0.586311 0.96959 0.726914Z" fill="#111827"/>
</svg>
