<svg width="28" height="29" viewBox="0 0 28 29" fill="none" xmlns="http://www.w3.org/2000/svg">
<path fill-rule="evenodd" clip-rule="evenodd" d="M19 10.75C19 12.0761 18.4732 13.3479 17.5355 14.2855C16.5979 15.2232 15.3261 15.75 14 15.75C12.6739 15.75 11.4021 15.2232 10.4645 14.2855C9.52678 13.3479 9 12.0761 9 10.75C9 9.42392 9.52678 8.15215 10.4645 7.21447C11.4021 6.27678 12.6739 5.75 14 5.75C15.3261 5.75 16.5979 6.27678 17.5355 7.21447C18.4732 8.15215 19 9.42392 19 10.75ZM16.5 10.75C16.5 11.413 16.2366 12.0489 15.7678 12.5178C15.2989 12.9866 14.663 13.25 14 13.25C13.337 13.25 12.7011 12.9866 12.2322 12.5178C11.7634 12.0489 11.5 11.413 11.5 10.75C11.5 10.087 11.7634 9.45107 12.2322 8.98223C12.7011 8.51339 13.337 8.25 14 8.25C14.663 8.25 15.2989 8.51339 15.7678 8.98223C16.2366 9.45107 16.5 10.087 16.5 10.75Z" fill="#111827"/>
<path fill-rule="evenodd" clip-rule="evenodd" d="M14 0.75C6.40625 0.75 0.25 6.90625 0.25 14.5C0.25 22.0938 6.40625 28.25 14 28.25C21.5938 28.25 27.75 22.0938 27.75 14.5C27.75 6.90625 21.5938 0.75 14 0.75ZM2.75 14.5C2.75 17.1125 3.64125 19.5175 5.135 21.4275C6.1843 20.0502 7.53769 18.9339 9.08955 18.1659C10.6414 17.3979 12.3497 16.9989 14.0812 17C15.7905 16.998 17.4776 17.3864 19.0139 18.1355C20.5502 18.8846 21.8952 19.9746 22.9462 21.3225C24.0293 19.902 24.7585 18.244 25.0736 16.4857C25.3887 14.7275 25.2805 12.9194 24.7581 11.2112C24.2357 9.50304 23.314 7.94381 22.0694 6.66255C20.8247 5.38128 19.2928 4.41482 17.6005 3.84314C15.9081 3.27145 14.104 3.11096 12.3373 3.37497C10.5707 3.63897 8.89224 4.31986 7.44096 5.36132C5.98968 6.40277 4.80726 7.77484 3.99154 9.36399C3.17581 10.9532 2.75023 12.7137 2.75 14.5ZM14 25.75C11.4174 25.7542 8.91268 24.8657 6.91 23.235C7.71601 22.0808 8.78899 21.1384 10.0376 20.4881C11.2862 19.8378 12.6734 19.4988 14.0812 19.5C15.4715 19.4988 16.8419 19.8293 18.0787 20.4641C19.3155 21.099 20.383 22.0197 21.1925 23.15C19.1743 24.8338 16.6283 25.7541 14 25.75Z" fill="#111827"/>
</svg>
